<svg width="100" height="100" viewBox="0 0 100 100" fill="none" xmlns="http://www.w3.org/2000/svg">
<rect x="0.25" y="0.25" width="99.5" height="99.5" rx="11.75" stroke="#A8A8A8" stroke-width="0.5"/>
<path d="M59.2027 17.5054C58.0996 17.676 57.0307 18.1991 56.2802 18.9382C55.7571 19.4499 55.4387 20.0981 55.6207 20.28C55.6662 20.3141 55.9959 20.2914 56.3484 20.2118C58.3839 19.791 60.3398 20.4278 61.9886 22.0312C62.8187 22.8272 62.9552 23.1911 62.2047 22.6111C60.8174 21.5081 59.7826 21.167 57.8949 21.1897C56.5418 21.2011 55.6207 21.4399 55.0521 21.9289C54.2561 22.6111 54.8019 24.8513 56.1324 26.3409C57.0876 27.4326 58.2247 27.9329 59.8963 28.0012C61.2722 28.0694 62.3298 27.6941 63.6489 26.6821C64.0923 26.3409 64.6382 26.2955 64.8997 26.557C65.0703 26.7276 65.1271 26.9436 65.1271 27.4553C65.1271 28.1945 65.1954 28.2627 65.8776 28.2627C66.196 28.2627 66.287 28.2058 66.378 27.967C66.594 27.4098 66.5031 26.8299 66.0937 26.0453C65.7184 25.3289 65.7071 25.272 65.8663 24.9536C65.9686 24.7717 66.3211 24.4192 66.6623 24.169C67.9131 23.2479 68.277 22.1222 67.3218 22.1222C66.992 22.1222 66.8442 22.2131 66.4348 22.6566C66.0027 23.1342 65.9345 23.1797 65.7639 23.0432C65.4683 22.8044 65.275 22.361 65.184 21.7242C64.9111 19.791 63.3532 18.1195 61.3973 17.6305C60.3512 17.3803 60.1124 17.3689 59.2027 17.5054ZM60.4762 18.779C60.6468 18.9837 60.499 19.3134 60.2033 19.3703C59.9645 19.4158 59.5438 18.9837 59.6234 18.7676C59.7144 18.5402 60.2829 18.5516 60.4762 18.779ZM63.0234 19.791C63.3759 20.1322 63.3873 20.4165 63.0348 20.7462L62.7619 20.9964L62.3525 20.6439C62.1251 20.4392 61.9431 20.2459 61.9431 20.189C61.9431 20.0185 62.4207 19.5068 62.5799 19.5068C62.6709 19.5068 62.8756 19.6318 63.0234 19.791ZM58.0769 22.7476C58.4408 22.9409 58.7592 23.4412 58.7592 23.8279C58.7592 24.4306 58.111 25.0787 57.5197 25.0787C57.1444 25.0787 56.4849 24.3396 56.4849 23.9075C56.4849 23.4867 56.8147 22.9409 57.1899 22.7362C57.5311 22.5429 57.6789 22.5429 58.0769 22.7476ZM61.4883 24.4533C61.909 24.6693 62 24.9877 61.7612 25.3857C61.3291 26.068 60.9425 26.159 60.4421 25.6814C60.0441 25.3061 60.0441 25.0787 60.4194 24.6352C60.7492 24.2486 60.9993 24.2031 61.4883 24.4533Z" fill="black"/>
<path d="M45.2272 19.1657C43.4078 19.4158 42.6914 19.5523 41.2473 19.9275C32.8438 22.0995 25.5548 27.7169 21.3929 35.222C19.3802 38.8608 18.0156 43 17.538 46.9345C17.4357 47.776 17.4584 47.776 19.3006 46.98C20.7675 46.3432 20.9949 46.1385 21.0063 45.5472C21.0063 45.1833 21.4952 43.2616 21.8819 42.0789C22.712 39.5204 23.7695 37.3257 25.2705 35.0856C28.2271 30.6394 31.9341 27.3872 36.6419 25.0788C40.7697 23.0547 44.2038 22.2473 49.1731 22.1336L51.925 22.0654L53.0962 21.1557C54.2902 20.2232 54.7792 19.7683 54.7792 19.6091C54.7792 19.2339 53.1076 19.0292 49.6621 18.9951C47.3309 18.961 46.4553 18.9951 45.2272 19.1657Z" fill="black"/>
<path d="M77.5787 24.3624C73.1325 25.4086 67.1853 27.8761 62.6822 30.537C59.6802 32.311 56.5986 34.4488 54.438 36.2568C52.1979 38.1331 48.2179 42.295 48.3316 42.6361C48.3544 42.7044 48.7069 42.7726 49.1617 42.7953C50.0259 42.8295 50.5377 43.1137 50.8219 43.7051C50.9015 43.8756 51.0494 44.0121 51.1403 44.0121C51.2427 44.0121 51.7316 43.5459 52.232 42.9887C56.4735 38.2809 63.4555 33.4026 70.4716 30.2186C71.8021 29.616 74.4743 28.5812 74.8382 28.5357C75.2248 28.4788 75.0656 28.3196 77.0556 30.7531C78.3633 32.3564 80.1486 35.222 80.8878 36.905C82.1841 39.8502 83.1393 43.7505 83.3895 47.0937L83.4577 48.1285L82.457 48.083C81.8998 48.0603 80.7513 47.9921 79.8985 47.9352C76.4188 47.685 67.1512 47.8215 63.41 48.174C61.2608 48.3787 60.5103 48.0489 59.6802 46.5365C59.1344 45.5472 58.8046 45.2174 58.2815 45.1378C57.4059 44.99 56.8374 45.5813 56.1437 47.4007C55.6434 48.6857 55.0862 49.4703 54.6996 49.3907C54.3129 49.3225 53.9832 48.6402 53.9832 47.9238C53.9832 46.9914 54.2333 46.5479 55.0407 46.0362C55.8481 45.5131 56.1437 45.0696 56.1437 44.3987C56.1437 43.5459 55.6889 43.0455 54.9042 43.0455C53.8695 43.0455 52.5845 43.8529 51.834 44.99C50.6855 46.7185 50.4922 48.9245 51.3223 50.7894C51.8908 52.063 52.8688 52.6202 54.4949 52.6429C55.3932 52.6543 55.5979 52.6202 56.1665 52.3359C56.917 51.9607 57.4401 51.4262 57.8153 50.5847C58.111 49.9366 58.1906 49.8797 58.4294 50.1753C58.7136 50.5165 60.2033 51.4262 60.7377 51.574C61.0675 51.665 61.5451 51.6991 62.0341 51.6536C66.7077 51.2443 68.4362 51.1419 72.0636 51.0055C75.4523 50.8917 80.2624 51.0623 84.9701 51.4717C87.8812 51.7219 88.4952 51.6309 89.3139 50.8463C89.8029 50.3914 89.8257 50.3345 89.9507 49.4248C90.0872 48.3446 89.928 45.3084 89.621 43.2729C88.6203 36.6207 85.1975 29.3317 81.3426 25.6701C80.251 24.6353 79.5346 24.2828 78.5567 24.2942C78.1359 24.3055 77.7038 24.3283 77.5787 24.3624ZM79.5005 28.2969C81.3995 30.4006 83.2189 33.3344 84.3219 36.0408C85.0042 37.6896 85.8571 40.3164 86.0959 41.4763C86.5166 43.5459 87.0283 48.0375 86.8805 48.3104C86.7327 48.5492 86.6303 48.1171 86.5166 46.9004C86.2209 43.6823 85.4704 40.089 84.5607 37.5304C83.56 34.7217 81.2517 30.719 79.3526 28.5243C78.9092 28.0126 78.5453 27.5691 78.5453 27.535C78.5453 27.3303 78.8409 27.5577 79.5005 28.2969Z" fill="black"/>
<path d="M71.7225 32.3222C71.2221 32.5383 70.4034 33.3229 70.1419 33.8346C69.7439 34.6193 69.6302 35.2788 69.778 35.9156C69.9486 36.6888 70.483 37.6099 70.972 37.9852C71.5974 38.4628 72.5867 38.7584 73.3031 38.6902C74.5653 38.5537 75.7138 37.6895 76.0891 36.5865C76.3734 35.7678 76.3279 34.5055 75.9981 33.8574C75.657 33.1865 75.1111 32.6634 74.4516 32.3677C73.8262 32.0834 72.3365 32.0493 71.7225 32.3222Z" fill="black"/>
<path d="M77.9881 38.5197C77.7834 39.0769 78.0904 39.4408 78.7386 39.3839C79.1707 39.3498 79.1707 39.3498 79.1707 38.8381V38.3264L78.6249 38.2923C78.1586 38.2582 78.079 38.2923 77.9881 38.5197Z" fill="black"/>
<path d="M64.4334 41.2601C63.6602 41.7832 63.3077 42.9544 63.6943 43.7163C63.9786 44.2508 64.6154 44.7284 65.1612 44.808C65.8321 44.9103 66.5712 44.5919 67.0147 44.0006C67.299 43.6367 67.3445 43.4775 67.3445 42.8635C67.3445 42.0675 67.1512 41.7036 66.4916 41.2487C65.9686 40.8962 64.9679 40.8962 64.4334 41.2601Z" fill="black"/>
<path d="M74.2811 42.3404C73.8376 42.3973 73.5647 42.6475 73.4168 43.1592C73.3031 43.5117 73.3259 43.6481 73.5306 44.0348C73.7921 44.5579 73.9285 44.6375 74.6449 44.6375C75.3613 44.6375 75.8162 44.1826 75.8162 43.4548C75.8162 42.6134 75.259 42.204 74.2811 42.3404Z" fill="black"/>
<path d="M46.6487 44.3077C44.4199 44.7171 42.1115 45.3539 41.7704 45.6382C41.4293 45.9452 41.2473 46.4114 41.2473 46.9573C41.2473 47.6168 41.6681 48.1285 42.3276 48.2763C42.7711 48.3787 43.1122 48.3218 44.3631 47.9238C44.545 47.867 44.7269 47.8442 44.7497 47.8783C44.7724 47.9011 44.5223 48.2308 44.1811 48.6175C43.4761 49.3907 42.1229 51.9038 41.9978 52.677C41.8727 53.3707 42.2253 54.0985 42.8279 54.4055L43.2828 54.6443L45.7049 54.0871C47.0353 53.7801 48.5591 53.4389 49.0935 53.3366C50.5604 53.0409 50.7992 52.859 50.7992 52.0289C50.7992 51.3352 50.6628 50.96 50.2762 50.6075C50.0146 50.3573 49.8554 50.3232 49.1959 50.3232C48.7638 50.3232 47.9792 50.4255 47.4447 50.5506C46.9102 50.6757 46.4213 50.778 46.3644 50.778C46.2393 50.778 47.6494 48.7653 48.6387 47.5372C49.5825 46.3659 49.6621 46.2181 49.6621 45.7405C49.6621 45.2402 49.5257 44.9445 49.1163 44.4897C48.8434 44.2054 48.7524 44.1826 48.0246 44.194C47.5812 44.2054 46.9671 44.2509 46.6487 44.3077Z" fill="black"/>
<path d="M28.0679 46.6048C26.8512 46.946 26.4305 48.4697 27.3288 49.3112C27.5562 49.5272 27.7382 49.5841 28.2271 49.5841C29.296 49.5841 29.9328 48.8563 29.8419 47.7306C29.7736 46.7185 29.1368 46.3205 28.0679 46.6048Z" fill="black"/>
<path d="M37.6425 46.5934C36.801 46.7185 33.8331 47.7191 32.6732 48.265C31.809 48.663 31.6612 48.7767 31.5134 49.1519C31.0585 50.2208 31.7749 51.3807 32.8666 51.3693C33.0712 51.3693 33.708 51.1533 34.288 50.9031C34.993 50.6075 35.3341 50.5051 35.3341 50.6075C35.3341 50.6871 35.2432 50.8235 35.1408 50.9031C34.6064 51.3466 33.2759 53.8028 32.9007 55.065C32.6505 55.8838 32.7074 56.3386 33.1167 56.8731C33.5147 57.3961 34.0492 57.5553 34.7315 57.3393C36.4713 56.7935 40.9288 55.2242 41.179 55.0537C41.4406 54.8945 41.4747 54.7921 41.4747 54.2349C41.4747 53.8824 41.3951 53.4389 41.3041 53.2456C41.1108 52.8476 40.4626 52.37 40.1215 52.37C39.8372 52.37 37.3014 53.1433 37.0285 53.3138C36.9148 53.3821 36.7897 53.4048 36.7442 53.3707C36.6646 53.2911 37.9723 51.1305 39.0298 49.5954C39.7349 48.572 39.8145 48.1285 39.4392 47.378C39.0526 46.6389 38.6205 46.4455 37.6425 46.5934Z" fill="black"/>
<path d="M21.3474 47.867C20.7561 48.0034 19.835 48.3104 19.3006 48.5492C16.6738 49.7205 13.0691 52.2222 11.1018 54.2577C9.82824 55.5767 9.69179 56.259 10.5219 57.0664C11.0109 57.544 11.7273 57.8283 12.455 57.8283C12.9667 57.8283 12.9667 57.8169 14.9681 55.861C17.4698 53.4048 19.9374 51.5854 21.7227 50.8804C22.6324 50.5165 23.0531 50.8121 23.0645 51.8242C23.0872 53.0068 22.5983 54.1553 21.6544 55.1674C20.9835 55.8838 20.7789 55.9065 20.7789 55.2356C20.7789 54.3031 19.9601 53.6436 19.0049 53.7914C18.4705 53.871 18.0611 54.1894 17.7654 54.758C17.5266 55.2242 17.5835 55.8496 18.0384 57.7714C18.8685 61.251 19.3574 62.627 19.926 62.9908C20.9381 63.6504 22.4846 62.9795 22.4846 61.8651C22.4846 61.6945 22.2003 60.7393 21.8591 59.7386C21.518 58.738 21.2337 57.9079 21.2337 57.8851C21.2337 57.8624 21.3929 57.8965 21.5748 57.9647C22.1093 58.1467 22.6096 57.9875 23.4966 57.362C25.7368 55.7928 26.999 52.279 26.1802 49.9252C25.7595 48.7084 25.0772 48.0944 23.7923 47.7532C23.0304 47.5486 22.621 47.5599 21.3474 47.867Z" fill="black"/>
<path d="M28.3295 50.0844C27.8064 50.4028 27.6017 50.7553 27.6017 51.358C27.6017 52.5861 28.7047 56.9868 29.3074 58.1808C29.5689 58.6811 29.8873 58.8517 30.5696 58.8517C31.4338 58.8517 32.1502 58.2376 32.1502 57.4985C32.1502 57.2711 32.0706 56.8048 31.9683 56.4637C31.6158 55.1901 30.8084 52.063 30.6719 51.4148C30.49 50.4937 30.3422 50.2208 29.9783 50.0275C29.5348 49.8001 28.7502 49.8228 28.3295 50.0844Z" fill="black"/>
<path d="M53.5056 54.2122C53.3236 54.5533 53.2554 57.1801 53.3919 59.0905C53.4828 60.421 53.5056 60.546 53.824 60.9327C54.0173 61.1942 54.3243 61.4103 54.5745 61.4899C54.9497 61.6036 55.0635 61.5808 55.6206 61.3079C56.7578 60.7507 57.5993 59.4658 57.713 58.1012C57.7698 57.2825 57.622 56.7935 57.1899 56.4637C56.61 55.9975 55.8594 56.2704 54.9952 57.237L54.529 57.7714L54.6086 56.1794C54.6996 54.2463 54.6313 53.962 54.0514 53.962C53.7557 53.962 53.6079 54.0303 53.5056 54.2122ZM56.4849 57.9193C56.4849 58.5674 56.1324 59.3975 55.6206 59.9434C55.1203 60.4892 54.7223 60.5915 54.6086 60.2049C54.4267 59.6477 55.9959 57.2029 56.3825 57.4303C56.4394 57.4758 56.4849 57.6918 56.4849 57.9193Z" fill="black"/>
<path d="M70.6081 54.94C69.4937 55.4972 68.9479 56.4979 69.4141 57.1233C69.5392 57.2939 70.0281 57.635 70.5057 57.8966C70.9833 58.1467 71.4041 58.3855 71.4496 58.4197C71.5974 58.5789 70.9265 58.7835 70.0168 58.8404L69.0502 58.9086L69.0161 59.3294C68.9706 59.8979 69.2321 60.0344 70.1646 59.9321C71.3586 59.7956 72.6322 59.011 72.6322 58.4197C72.6322 57.9762 72.2114 57.5554 71.3245 57.1006C70.8241 56.839 70.4034 56.5548 70.3806 56.4638C70.3352 56.1681 71.1198 55.736 71.7452 55.7133C72.473 55.6905 72.689 55.4063 72.4047 54.8604C72.2228 54.5307 71.3472 54.5648 70.6081 54.94Z" fill="black"/>
<path d="M66.6963 55.0878C66.1505 55.2697 65.6161 55.6563 65.0134 56.3159C64.2288 57.1801 63.9559 57.7373 63.9445 58.5447C63.9331 59.1473 63.9672 59.2383 64.2629 59.4998C64.5472 59.7386 64.6722 59.7728 65.0589 59.7045C65.5706 59.6249 66.3211 59.2269 66.6509 58.863C67.0716 58.3968 67.1512 58.556 66.992 59.4771C66.8328 60.3868 66.7077 60.6938 66.3438 61.0918C66.0254 61.4443 65.5137 61.4216 64.4789 61.0122C63.4669 60.6029 63.4669 60.6029 63.3077 60.9099C63.0461 61.3875 63.8308 62.0698 65.0248 62.4109C65.5933 62.5815 65.7298 62.5815 66.196 62.445C66.9238 62.229 67.4469 61.7969 67.7311 61.1942C67.9358 60.7848 68.0041 60.3413 68.095 58.8858C68.1519 57.8965 68.2542 56.8731 68.3111 56.6115C68.4703 55.9292 68.4475 55.6108 68.2315 55.3379C67.9927 55.065 67.1853 54.9286 66.6963 55.0878ZM67.2877 56.259C67.2877 57.0323 65.9913 58.6243 65.3545 58.6243C64.9565 58.6243 64.9338 58.5219 65.2408 57.8624C65.798 56.6115 67.2877 55.4516 67.2877 56.259Z" fill="black"/>
<path d="M59.0662 55.9406C58.9752 56.0316 58.8729 56.4296 58.8387 56.8276C58.6113 59.1473 58.6113 59.1018 58.8956 59.6477C59.2026 60.239 59.7371 60.6029 60.1578 60.5005C60.5786 60.3868 61.3177 59.7159 61.5451 59.2497C61.6475 59.0222 61.7612 58.863 61.8067 58.8972C61.8408 58.9313 61.9772 59.2383 62.1023 59.5567C62.3639 60.2162 62.5572 60.3186 63.0916 60.1025C63.4669 59.9433 63.5124 59.659 63.2053 59.3748C62.8528 59.0564 62.6936 58.2604 62.7732 57.1119C62.8073 56.5319 62.8073 55.9975 62.7732 55.9179C62.7505 55.8496 62.5572 55.7814 62.3411 55.7814C61.8863 55.7814 61.7725 55.9065 61.6247 56.6456C61.4087 57.6691 61.022 58.5105 60.5558 58.9995C60.1237 59.4657 60.101 59.4657 59.9418 59.2497C59.7712 59.0109 59.7939 58.3286 60.0214 57.3165C60.1692 56.6343 60.1464 56.1567 59.9418 55.9634C59.7257 55.7359 59.2822 55.7246 59.0662 55.9406Z" fill="black"/>
<path d="M45.1477 56.1226C44.852 56.2477 44.8293 56.3841 44.8748 58.0784L44.9089 59.1928H44.5223C43.5329 59.1928 42.5209 60.6029 42.4072 62.138C42.339 63.1273 42.4072 63.4116 42.8507 63.9119C43.2714 64.3782 43.6467 64.4237 44.3176 64.0825C44.7497 63.8665 45.341 63.1614 45.341 62.8658C45.341 62.5701 45.6025 62.5929 45.8868 62.934C46.0688 63.1387 46.353 63.3206 46.5577 63.3547C46.8875 63.423 46.9898 63.3661 47.3992 62.9681C47.7517 62.6042 47.8541 62.4337 47.8199 62.1835C47.7972 61.922 47.729 61.8651 47.5015 61.8765C47.3423 61.8878 47.1149 61.9333 46.9785 61.9788C46.7851 62.0357 46.7169 61.9902 46.6032 61.7286C46.3417 61.0805 46.1256 59.6704 46.0574 58.0671C46.0005 56.6911 45.955 56.3955 45.7731 56.2135C45.5457 55.9861 45.5116 55.9747 45.1477 56.1226ZM44.9885 60.3755C45.2841 60.728 44.3972 62.9567 43.9309 63.0363C43.2828 63.1614 43.4079 61.4785 44.1129 60.6256C44.4654 60.1935 44.7724 60.1139 44.9885 60.3755Z" fill="black"/>
<path d="M50.9812 57.4756C50.8333 57.6462 50.7878 57.794 50.8447 58.0215C50.8902 58.192 50.9812 58.6355 51.038 58.9994C51.1517 59.6248 51.1404 59.6931 50.8674 60.0797C50.0487 61.2509 49.5939 61.4101 49.3664 60.6141C49.2641 60.2389 49.2755 60.0228 49.446 59.3974C49.6735 58.59 49.6507 58.3399 49.3096 58.1693C48.9912 57.9873 48.6955 58.0328 48.4567 58.2944C48.2748 58.4991 48.2407 58.7151 48.2407 59.9205C48.2407 61.0121 48.2861 61.376 48.4453 61.6603C48.9798 62.6496 49.8554 62.6155 50.8561 61.5921C51.0949 61.3305 51.345 61.1258 51.4019 61.1258C51.4588 61.1258 51.4929 61.558 51.4588 62.1265C51.4019 63.457 51.1631 63.9004 50.4922 63.9459C50.1852 63.9687 49.844 63.8891 49.4915 63.7299C48.8888 63.4456 48.6045 63.5138 48.5477 63.9573C48.4226 64.7874 50.3785 65.3105 51.5725 64.7647C52.3002 64.4349 52.5277 63.8322 52.5959 62.1493C52.6414 60.7847 52.323 58.2375 52.0159 57.6121C51.834 57.2255 51.2768 57.1459 50.9812 57.4756Z" fill="black"/>
<path d="M76.6576 60.2958C75.5432 63.6163 73.4623 67.1528 70.881 70.0866C69.198 72.0083 67.6174 73.3729 65.2294 74.9762C61.6133 77.4097 57.6561 78.9107 53.244 79.5362C51.0266 79.8545 49.8781 79.9114 47.9791 79.7749C42.6004 79.4111 37.8927 77.8987 33.8104 75.2264C31.4679 73.6913 29.0003 71.5989 28.011 70.3026C27.4879 69.6203 27.4083 69.609 26.2826 70.0638C24.9635 70.5983 24.4177 70.8826 24.4177 71.0304C24.4177 71.2237 26.1006 73.1341 27.1582 74.1461C31.9455 78.7174 38.2339 81.7763 44.7383 82.6746C51.3336 83.5844 57.6561 82.5837 63.4782 79.7067C69.7097 76.6365 74.7018 71.7354 77.8289 65.6176C78.6476 64.0143 79.7734 61.2624 79.8757 60.6029L79.9326 60.2503L79.057 60.1821C77.4423 60.0457 76.7259 60.0798 76.6576 60.2958Z" fill="black"/>
<path d="M38.7343 60.8189C38.5296 60.9554 38.2339 61.2397 38.0975 61.4557C37.4607 62.3995 37.0968 64.1848 37.3697 65.0263C37.5403 65.5267 38.0861 66.0156 38.4727 66.0156C39.0981 66.0156 39.8373 65.3561 40.1216 64.5601C40.2353 64.219 40.4513 64.0598 40.4513 64.2986C40.4513 64.5601 41.054 65.1059 41.3497 65.1059C42.1343 65.1059 42.4186 64.4009 41.8045 63.9574C41.3724 63.6504 41.1109 63.0704 40.8493 61.831C40.6674 60.9781 40.6219 60.8871 40.349 60.8303C40.1898 60.7962 39.9396 60.7166 39.7918 60.6597C39.3938 60.5005 39.155 60.5346 38.7343 60.8189ZM39.769 62.4337C39.769 62.9112 39.3142 64.1848 39.0299 64.5032C38.7911 64.7761 38.7343 64.7989 38.6319 64.6511C38.2908 64.1394 38.7115 62.1721 39.2573 61.7855C39.4165 61.6604 39.769 62.1153 39.769 62.4337Z" fill="black"/>
<path d="M31.5816 62.0014C31.2973 62.1038 31.0131 62.3994 31.0131 62.5928C31.0131 62.8088 32.5596 67.6416 32.7642 68.0624C32.9803 68.5286 33.3783 68.4831 34.2084 67.8918C34.6064 67.6075 35.4593 67.1186 36.0961 66.8002C36.8238 66.4363 37.2787 66.1406 37.3242 66.0042C37.4038 65.7654 37.1308 65.2423 36.8693 65.1513C36.7101 65.0831 35.3797 65.7199 34.4472 66.3226C34.1174 66.5272 33.799 66.6751 33.7422 66.641C33.6398 66.5841 33.094 64.958 32.5482 63.15C32.3549 62.5018 32.1843 62.1152 32.0365 62.0356C31.9228 61.9787 31.8091 61.9218 31.7863 61.9332C31.7636 61.9332 31.6726 61.9673 31.5816 62.0014Z" fill="black"/>
</svg>
