<svg width="80" height="66" viewBox="0 0 80 66" fill="none" xmlns="http://www.w3.org/2000/svg">
<path d="M49.2024 0.504422C48.0994 0.674993 47.0305 1.19808 46.28 1.93721C45.7569 2.44892 45.4385 3.09709 45.6204 3.27903C45.6659 3.31315 45.9957 3.2904 46.3482 3.2108C48.3837 2.79006 50.3395 3.42686 51.9884 5.03022C52.8185 5.82621 52.955 6.1901 52.2044 5.61016C50.8171 4.50714 49.7823 4.166 47.8947 4.18874C46.5415 4.20011 45.6204 4.43891 45.0519 4.92788C44.2559 5.61016 44.8017 7.85031 46.1321 9.33996C47.0873 10.4316 48.2245 10.9319 49.8961 11.0002C51.272 11.0684 52.3295 10.6932 53.6486 9.6811C54.0921 9.33996 54.6379 9.29448 54.8995 9.55602C55.07 9.72659 55.1269 9.94264 55.1269 10.4544C55.1269 11.1935 55.1951 11.2617 55.8774 11.2617C56.1958 11.2617 56.2868 11.2049 56.3777 10.9661C56.5938 10.4089 56.5028 9.82893 56.0934 9.04431C55.7182 8.32791 55.7068 8.27105 55.866 7.95266C55.9684 7.77071 56.3209 7.4182 56.662 7.16803C57.9129 6.24695 58.2767 5.12119 57.3216 5.12119C56.9918 5.12119 56.844 5.21216 56.4346 5.65564C56.0025 6.13324 55.9342 6.17873 55.7637 6.04227C55.468 5.80347 55.2747 5.35999 55.1837 4.72319C54.9108 2.79006 53.353 1.11848 51.3971 0.629507C50.3509 0.379337 50.1121 0.367967 49.2024 0.504422ZM50.476 1.77801C50.6466 1.9827 50.4987 2.31247 50.2031 2.36932C49.9643 2.41481 49.5436 1.9827 49.6231 1.76664C49.7141 1.53922 50.2827 1.55059 50.476 1.77801ZM53.0232 2.79006C53.3757 3.1312 53.3871 3.41549 53.0346 3.74526L52.7616 3.99543L52.3523 3.64291C52.1248 3.43823 51.9429 3.24492 51.9429 3.18806C51.9429 3.01749 52.4205 2.50578 52.5797 2.50578C52.6707 2.50578 52.8754 2.63087 53.0232 2.79006ZM48.0766 5.74661C48.4405 5.93993 48.7589 6.44027 48.7589 6.82689C48.7589 7.42957 48.1108 8.07774 47.5195 8.07774C47.1442 8.07774 46.4847 7.3386 46.4847 6.90649C46.4847 6.48575 46.8144 5.93993 47.1897 5.73524C47.5308 5.54193 47.6786 5.54193 48.0766 5.74661ZM51.4881 7.45232C51.9088 7.66837 51.9998 7.98677 51.761 8.38477C51.3289 9.06705 50.9422 9.15802 50.4419 8.68042C50.0439 8.30517 50.0439 8.07774 50.4191 7.63426C50.7489 7.24763 50.9991 7.20215 51.4881 7.45232Z" fill="#F90304"/>
<path d="M35.2264 2.16652C33.407 2.41669 32.6906 2.55314 31.2464 2.9284C22.843 5.10033 15.5539 10.7178 11.392 18.2229C9.3793 21.8617 8.01474 26.0009 7.53714 29.9354C7.4348 30.7768 7.45754 30.7768 9.2997 29.9808C10.7666 29.344 10.994 29.1394 11.0054 28.548C11.0054 28.1842 11.4944 26.2624 11.881 25.0798C12.7111 22.5212 13.7686 20.3266 15.2697 18.0864C18.2262 13.6402 21.9333 10.388 26.641 8.07962C30.7688 6.05552 34.203 5.24815 39.1722 5.13444L41.9241 5.06621L43.0953 4.15651C44.2893 3.22405 44.7783 2.7692 44.7783 2.61C44.7783 2.23475 43.1067 2.03006 39.6612 1.99595C37.3301 1.96183 36.4545 1.99595 35.2264 2.16652Z" fill="#F90304"/>
<path d="M67.5796 7.36214C63.1334 8.40831 57.1862 10.8759 52.6831 13.5368C49.6811 15.3107 46.5994 17.4485 44.4389 19.2566C42.1987 21.1328 38.2187 25.2948 38.3325 25.6359C38.3552 25.7041 38.7077 25.7724 39.1626 25.7951C40.0268 25.8292 40.5385 26.1135 40.8228 26.7048C40.9024 26.8754 41.0502 27.0118 41.1412 27.0118C41.2435 27.0118 41.7325 26.5456 42.2328 25.9884C46.4743 21.2807 53.4564 16.4024 60.4725 13.2184C61.8029 12.6157 64.4752 11.5809 64.8391 11.5354C65.2257 11.4786 65.0665 11.3194 67.0565 13.7528C68.3642 15.3562 70.1495 18.2218 70.8886 19.9047C72.185 22.8499 73.1402 26.7503 73.3903 30.0935L73.4586 31.1283L72.4579 31.0828C71.9007 31.06 70.7522 30.9918 69.8993 30.9349C66.4197 30.6848 57.152 30.8212 53.4109 31.1737C51.2617 31.3784 50.5112 31.0487 49.6811 29.5363C49.1352 28.547 48.8055 28.2172 48.2824 28.1376C47.4068 27.9898 46.8382 28.5811 46.1446 30.4005C45.6442 31.6855 45.087 32.4701 44.7004 32.3905C44.3138 32.3223 43.984 31.64 43.984 30.9236C43.984 29.9911 44.2342 29.5476 45.0416 29.0359C45.8489 28.5129 46.1446 28.0694 46.1446 27.3985C46.1446 26.5456 45.6897 26.0453 44.9051 26.0453C43.8703 26.0453 42.5853 26.8526 41.8348 27.9898C40.6863 29.7182 40.493 31.9243 41.3231 33.7892C41.8917 35.0627 42.8696 35.6199 44.4957 35.6427C45.3941 35.6541 45.5988 35.6199 46.1673 35.3357C46.9178 34.9604 47.4409 34.426 47.8162 33.5845C48.1118 32.9363 48.1914 32.8795 48.4302 33.1751C48.7145 33.5162 50.2042 34.426 50.7386 34.5738C51.0684 34.6648 51.546 34.6989 52.0349 34.6534C56.7086 34.244 58.437 34.1417 62.0645 34.0052C65.4531 33.8915 70.2632 34.0621 74.9709 34.4714C77.882 34.7216 78.4961 34.6306 79.3148 33.846C79.8038 33.3912 79.8265 33.3343 79.9516 32.4246C80.0881 31.3443 79.9289 28.3082 79.6218 26.2727C78.6211 19.6205 75.1984 12.3314 71.3435 8.66985C70.2518 7.63506 69.5354 7.28254 68.5575 7.29391C68.1368 7.30529 67.7047 7.32803 67.5796 7.36214ZM69.5013 11.2966C71.4003 13.4003 73.2198 16.3341 74.3228 19.0405C75.0051 20.6894 75.8579 23.3161 76.0967 24.476C76.5174 26.5456 77.0292 31.0373 76.8813 31.3102C76.7335 31.549 76.6312 31.1169 76.5174 29.9002C76.2218 26.6821 75.4713 23.0887 74.5616 20.5302C73.5609 17.7214 71.2525 13.7187 69.3535 11.5241C68.91 11.0123 68.5461 10.5689 68.5461 10.5347C68.5461 10.3301 68.8418 10.5575 69.5013 11.2966Z" fill="#F90304"/>
<path d="M61.7235 15.3215C61.2231 15.5376 60.4044 16.3222 60.1428 16.8339C59.7448 17.6185 59.6311 18.2781 59.779 18.9149C59.9495 19.6881 60.484 20.6092 60.973 20.9844C61.5984 21.462 62.5877 21.7577 63.3041 21.6895C64.5663 21.553 65.7148 20.6888 66.0901 19.5858C66.3743 18.767 66.3289 17.5048 65.9991 16.8566C65.6579 16.1857 65.1121 15.6627 64.4526 15.367C63.8272 15.0827 62.3375 15.0486 61.7235 15.3215Z" fill="#F90304"/>
<path d="M67.9886 21.5206C67.7839 22.0778 68.091 22.4416 68.7391 22.3848C69.1712 22.3507 69.1712 22.3507 69.1712 21.839V21.3273L68.6254 21.2931C68.1592 21.259 68.0796 21.2931 67.9886 21.5206Z" fill="#F90304"/>
<path d="M54.4322 24.2613C53.659 24.7844 53.3064 25.9556 53.6931 26.7175C53.9774 27.252 54.6142 27.7296 55.16 27.8092C55.8309 27.9115 56.57 27.5931 57.0135 27.0018C57.2978 26.6379 57.3433 26.4787 57.3433 25.8647C57.3433 25.0687 57.15 24.7048 56.4904 24.2499C55.9673 23.8974 54.9667 23.8974 54.4322 24.2613Z" fill="#F90304"/>
<path d="M64.2819 25.3397C63.8384 25.3966 63.5655 25.6467 63.4177 26.1584C63.304 26.511 63.3267 26.6474 63.5314 27.034C63.7929 27.5571 63.9294 27.6367 64.6458 27.6367C65.3622 27.6367 65.817 27.1819 65.817 26.4541C65.817 25.6126 65.2599 25.2033 64.2819 25.3397Z" fill="#F90304"/>
<path d="M36.6494 27.308C34.4207 27.7173 32.1123 28.3541 31.7711 28.6384C31.43 28.9454 31.248 29.4117 31.248 29.9575C31.248 30.617 31.6688 31.1287 32.3283 31.2766C32.7718 31.3789 33.1129 31.3221 34.3638 30.9241C34.5457 30.8672 34.7277 30.8445 34.7504 30.8786C34.7732 30.9013 34.523 31.2311 34.1819 31.6177C33.4768 32.391 32.1236 34.904 31.9986 35.6773C31.8735 36.3709 32.226 37.0987 32.8287 37.4057L33.2835 37.6445L35.7056 37.0873C37.0361 36.7803 38.5598 36.4392 39.0943 36.3368C40.5612 36.0412 40.8 35.8592 40.8 35.0291C40.8 34.3355 40.6635 33.9602 40.2769 33.6077C40.0154 33.3575 39.8562 33.3234 39.1966 33.3234C38.7645 33.3234 37.9799 33.4258 37.4454 33.5508C36.911 33.6759 36.422 33.7783 36.3652 33.7783C36.2401 33.7783 37.6501 31.7655 38.6394 30.5374C39.5832 29.3662 39.6628 29.2184 39.6628 28.7408C39.6628 28.2404 39.5264 27.9448 39.117 27.4899C38.8441 27.2056 38.7531 27.1829 38.0254 27.1943C37.5819 27.2056 36.9678 27.2511 36.6494 27.308Z" fill="#F90304"/>
<path d="M18.0687 29.6047C16.852 29.9458 16.4312 31.4696 17.3296 32.3111C17.557 32.5271 17.739 32.584 18.2279 32.584C19.2968 32.584 19.9336 31.8562 19.8427 30.7305C19.7744 29.7184 19.1376 29.3204 18.0687 29.6047Z" fill="#F90304"/>
<path d="M27.6431 29.5941C26.8017 29.7192 23.8337 30.7199 22.6739 31.2657C21.8096 31.6637 21.6618 31.7774 21.514 32.1527C21.0591 33.2216 21.7755 34.3814 22.8672 34.3701C23.0719 34.3701 23.7086 34.154 24.2886 33.9038C24.9936 33.6082 25.3347 33.5058 25.3347 33.6082C25.3347 33.6878 25.2438 33.8242 25.1414 33.9038C24.607 34.3473 23.2765 36.8035 22.9013 38.0658C22.6511 38.8845 22.708 39.3393 23.1173 39.8738C23.5153 40.3969 24.0498 40.5561 24.7321 40.34C26.4719 39.7942 30.9295 38.225 31.1796 38.0544C31.4412 37.8952 31.4753 37.7928 31.4753 37.2356C31.4753 36.8831 31.3957 36.4397 31.3047 36.2463C31.1114 35.8483 30.4632 35.3707 30.1221 35.3707C29.8378 35.3707 27.302 36.144 27.0291 36.3146C26.9154 36.3828 26.7903 36.4055 26.7448 36.3714C26.6652 36.2918 27.9729 34.1313 29.0304 32.5961C29.7355 31.5727 29.8151 31.1292 29.4398 30.3787C29.0532 29.6396 28.6211 29.4463 27.6431 29.5941Z" fill="#F90304"/>
<path d="M11.3474 30.8673C10.7561 31.0038 9.83503 31.3108 9.30058 31.5496C6.6738 32.7209 3.06908 35.2225 1.10183 37.258C-0.171757 38.5771 -0.308213 39.2594 0.521896 40.0667C1.01086 40.5443 1.72726 40.8286 2.45502 40.8286C2.96674 40.8286 2.96674 40.8173 4.96809 38.8614C7.46979 36.4052 9.93737 34.5858 11.7227 33.8807C12.6324 33.5168 13.0531 33.8125 13.0645 34.8246C13.0872 36.0072 12.5983 37.1557 11.6544 38.1677C10.9835 38.8841 10.7789 38.9069 10.7789 38.236C10.7789 37.3035 9.96011 36.644 9.00492 36.7918C8.47047 36.8714 8.0611 37.1898 7.76544 37.7584C7.52665 38.2246 7.5835 38.85 8.03836 40.7718C8.86847 44.2514 9.35743 45.6273 9.926 45.9912C10.9381 46.6508 12.4846 45.9798 12.4846 44.8655C12.4846 44.6949 12.2003 43.7397 11.8591 42.739C11.518 41.7383 11.2337 40.9082 11.2337 40.8855C11.2337 40.8627 11.3929 40.8969 11.5748 40.9651C12.1093 41.147 12.6096 40.9878 13.4966 40.3624C15.7368 38.7932 16.999 35.2794 16.1802 32.9255C15.7595 31.7088 15.0772 31.0947 13.7923 30.7536C13.0304 30.5489 12.621 30.5603 11.3474 30.8673Z" fill="#F90304"/>
<path d="M18.3293 33.0843C17.8062 33.4027 17.6016 33.7552 17.6016 34.3578C17.6016 35.5859 18.7046 39.9867 19.3073 41.1807C19.5688 41.681 19.8872 41.8516 20.5695 41.8516C21.4337 41.8516 22.1501 41.2375 22.1501 40.4984C22.1501 40.2709 22.0705 39.8047 21.9682 39.4636C21.6156 38.19 20.8083 35.0629 20.6718 34.4147C20.4899 33.4936 20.3421 33.2207 19.9782 33.0274C19.5347 32.8 18.7501 32.8227 18.3293 33.0843Z" fill="#F90304"/>
<path d="M43.5061 37.2126C43.3241 37.5537 43.2559 40.1805 43.3924 42.0909C43.4833 43.4213 43.5061 43.5464 43.8245 43.933C44.0178 44.1946 44.3248 44.4106 44.575 44.4902C44.9502 44.6039 45.0639 44.5812 45.6211 44.3083C46.7583 43.7511 47.5998 42.4661 47.7135 41.1016C47.7703 40.2828 47.6225 39.7939 47.1904 39.4641C46.6104 38.9979 45.8599 39.2708 44.9957 40.2374L44.5295 40.7718L44.6091 39.1798C44.7001 37.2467 44.6318 36.9624 44.0519 36.9624C43.7562 36.9624 43.6084 37.0306 43.5061 37.2126ZM46.4854 40.9196C46.4854 41.5678 46.1328 42.3979 45.6211 42.9437C45.1208 43.4896 44.7228 43.5919 44.6091 43.2053C44.4271 42.6481 45.9964 40.2032 46.383 40.4307C46.4399 40.4761 46.4854 40.6922 46.4854 40.9196Z" fill="#F90304"/>
<path d="M60.6086 37.9397C59.4942 38.4969 58.9484 39.4975 59.4146 40.123C59.5397 40.2935 60.0287 40.6347 60.5063 40.8962C60.9839 41.1464 61.4046 41.3852 61.4501 41.4193C61.5979 41.5785 60.927 41.7832 60.0173 41.84L59.0507 41.9083L59.0166 42.329C58.9711 42.8976 59.2327 43.034 60.1651 42.9317C61.3591 42.7952 62.6327 42.0106 62.6327 41.4193C62.6327 40.9758 62.212 40.5551 61.325 40.1002C60.8247 39.8387 60.4039 39.5544 60.3812 39.4634C60.3357 39.1678 61.1203 38.7357 61.7458 38.7129C62.4735 38.6902 62.6896 38.4059 62.4053 37.8601C62.2234 37.5303 61.3478 37.5644 60.6086 37.9397Z" fill="#F90304"/>
<path d="M56.6968 38.0873C56.151 38.2692 55.6166 38.6558 55.0139 39.3154C54.2293 40.1796 53.9563 40.7368 53.945 41.5442C53.9336 42.1468 53.9677 42.2378 54.2634 42.4994C54.5476 42.7382 54.6727 42.7723 55.0594 42.704C55.5711 42.6244 56.3216 42.2264 56.6513 41.8626C57.0721 41.3963 57.1517 41.5555 56.9925 42.4766C56.8333 43.3863 56.7082 43.6933 56.3443 44.0913C56.0259 44.4439 55.5142 44.4211 54.4794 44.0117C53.4674 43.6024 53.4674 43.6024 53.3082 43.9094C53.0466 44.387 53.8313 45.0693 55.0252 45.4104C55.5938 45.581 55.7303 45.581 56.1965 45.4445C56.9243 45.2285 57.4473 44.7964 57.7316 44.1937C57.9363 43.7843 58.0045 43.3408 58.0955 41.8853C58.1524 40.896 58.2547 39.8726 58.3116 39.611C58.4708 38.9288 58.448 38.6104 58.232 38.3374C57.9932 38.0645 57.1858 37.9281 56.6968 38.0873ZM57.2881 39.2585C57.2881 40.0318 55.9918 41.6238 55.355 41.6238C54.957 41.6238 54.9343 41.5214 55.2413 40.8619C55.7985 39.611 57.2881 38.4512 57.2881 39.2585Z" fill="#F90304"/>
<path d="M49.0653 38.9405C48.9743 39.0315 48.872 39.4295 48.8379 39.8275C48.6105 42.1472 48.6105 42.1017 48.8947 42.6475C49.2018 43.2389 49.7362 43.6027 50.157 43.5004C50.5777 43.3867 51.3168 42.7158 51.5443 42.2496C51.6466 42.0221 51.7603 41.8629 51.8058 41.897C51.8399 41.9312 51.9764 42.2382 52.1015 42.5566C52.363 43.2161 52.5563 43.3185 53.0908 43.1024C53.466 42.9432 53.5115 42.6589 53.2045 42.3746C52.852 42.0562 52.6928 41.2602 52.7724 40.1117C52.8065 39.5318 52.8065 38.9973 52.7724 38.9177C52.7496 38.8495 52.5563 38.7813 52.3403 38.7813C51.8854 38.7813 51.7717 38.9064 51.6239 39.6455C51.4078 40.6689 51.0212 41.5104 50.555 41.9994C50.1228 42.4656 50.1001 42.4656 49.9409 42.2496C49.7703 42.0108 49.7931 41.3285 50.0205 40.3164C50.1683 39.6341 50.1456 39.1565 49.9409 38.9632C49.7248 38.7358 49.2814 38.7244 49.0653 38.9405Z" fill="#F90304"/>
<path d="M35.148 39.1218C34.8523 39.2469 34.8296 39.3834 34.8751 41.0777L34.9092 42.1921H34.5226C33.5332 42.1921 32.5212 43.6021 32.4075 45.1373C32.3393 46.1266 32.4075 46.4109 32.851 46.9112C33.2717 47.3774 33.647 47.4229 34.3179 47.0818C34.75 46.8657 35.3413 46.1607 35.3413 45.865C35.3413 45.5694 35.6028 45.5921 35.8871 45.9333C36.0691 46.138 36.3533 46.3199 36.558 46.354C36.8878 46.4222 36.9901 46.3654 37.3995 45.9674C37.752 45.6035 37.8544 45.4329 37.8202 45.1828C37.7975 44.9212 37.7293 44.8644 37.5018 44.8757C37.3427 44.8871 37.1152 44.9326 36.9788 44.9781C36.7855 45.0349 36.7172 44.9895 36.6035 44.7279C36.342 44.0797 36.1259 42.6697 36.0577 41.0663C36.0008 39.6904 35.9553 39.3947 35.7734 39.2128C35.546 38.9854 35.5119 38.974 35.148 39.1218ZM34.9888 43.3747C35.2844 43.7272 34.3975 45.956 33.9312 46.0356C33.2831 46.1607 33.4082 44.4777 34.1132 43.6249C34.4657 43.1928 34.7727 43.1132 34.9888 43.3747Z" fill="#F90304"/>
<path d="M40.9807 40.4754C40.8329 40.646 40.7874 40.7938 40.8443 41.0212C40.8898 41.1918 40.9807 41.6353 41.0376 41.9992C41.1513 42.6246 41.1399 42.6928 40.867 43.0794C40.0483 44.2507 39.5934 44.4099 39.366 43.6139C39.2637 43.2386 39.275 43.0226 39.4456 42.3972C39.673 41.5898 39.6503 41.3396 39.3091 41.169C38.9907 40.9871 38.6951 41.0326 38.4563 41.2941C38.2743 41.4988 38.2402 41.7149 38.2402 42.9202C38.2402 44.0119 38.2857 44.3758 38.4449 44.66C38.9794 45.6494 39.855 45.6152 40.8556 44.5918C41.0944 44.3303 41.3446 44.1256 41.4015 44.1256C41.4583 44.1256 41.4924 44.5577 41.4583 45.1263C41.4015 46.4567 41.1627 46.9002 40.4918 46.9457C40.1847 46.9684 39.8436 46.8888 39.4911 46.7296C38.8884 46.4454 38.6041 46.5136 38.5473 46.9571C38.4222 47.7872 40.378 48.3103 41.572 47.7644C42.2998 47.4347 42.5272 46.832 42.5955 45.149C42.6409 43.7845 42.3225 41.2373 42.0155 40.6118C41.8336 40.2252 41.2764 40.1456 40.9807 40.4754Z" fill="#F90304"/>
<path d="M66.6579 43.2958C65.5435 46.6163 63.4626 50.1528 60.8813 53.0866C59.1983 55.0083 57.6177 56.3729 55.2297 57.9762C51.6136 60.4097 47.6564 61.9107 43.2443 62.5362C41.0269 62.8545 39.8784 62.9114 37.9794 62.7749C32.6008 62.4111 27.893 60.8987 23.8107 58.2264C21.4682 56.6913 19.0006 54.5989 18.0113 53.3026C17.4882 52.6203 17.4086 52.609 16.2829 53.0638C14.9638 53.5983 14.418 53.8826 14.418 54.0304C14.418 54.2237 16.1009 56.1341 17.1585 57.1461C21.9458 61.7174 28.2342 64.7763 34.7386 65.6746C41.334 66.5844 47.6564 65.5837 53.4785 62.7067C59.71 59.6365 64.7021 54.7354 67.8292 48.6176C68.6479 47.0143 69.7737 44.2624 69.876 43.6029L69.9329 43.2503L69.0573 43.1821C67.4426 43.0457 66.7262 43.0798 66.6579 43.2958Z" fill="#F90304"/>
<path d="M28.7336 43.8189C28.5289 43.9554 28.2332 44.2397 28.0968 44.4557C27.46 45.3995 27.0961 47.1848 27.369 48.0263C27.5396 48.5267 28.0854 49.0156 28.472 49.0156C29.0975 49.0156 29.8366 48.3561 30.1209 47.5601C30.2346 47.219 30.4507 47.0598 30.4507 47.2986C30.4507 47.5601 31.0533 48.1059 31.349 48.1059C32.1336 48.1059 32.4179 47.4009 31.8038 46.9574C31.3717 46.6504 31.1102 46.0704 30.8487 44.831C30.6667 43.9781 30.6212 43.8871 30.3483 43.8303C30.1891 43.7962 29.9389 43.7166 29.7911 43.6597C29.3931 43.5005 29.1543 43.5346 28.7336 43.8189ZM29.7684 45.4337C29.7684 45.9112 29.3135 47.1848 29.0292 47.5032C28.7904 47.7761 28.7336 47.7989 28.6312 47.6511C28.2901 47.1394 28.7108 45.1721 29.2567 44.7855C29.4159 44.6604 29.7684 45.1153 29.7684 45.4337Z" fill="#F90304"/>
<path d="M21.5803 45.0025C21.296 45.1049 21.0117 45.4005 21.0117 45.5939C21.0117 45.8099 22.5582 50.6427 22.7629 51.0635C22.979 51.5297 23.377 51.4842 24.2071 50.8929C24.6051 50.6086 25.4579 50.1197 26.0947 49.8013C26.8225 49.4374 27.2773 49.1417 27.3228 49.0053C27.4024 48.7665 27.1295 48.2434 26.868 48.1524C26.7088 48.0842 25.3783 48.721 24.4459 49.3237C24.1161 49.5283 23.7977 49.6762 23.7408 49.6421C23.6385 49.5852 23.0927 47.9591 22.5469 46.1511C22.3535 45.5029 22.183 45.1163 22.0351 45.0367C21.9214 44.9798 21.8077 44.9229 21.785 44.9343C21.7622 44.9343 21.6713 44.9684 21.5803 45.0025Z" fill="#F90304"/>
</svg>
