<svg width="40" height="55" viewBox="0 0 40 55" fill="none" xmlns="http://www.w3.org/2000/svg">
<path d="M38.3557 47.6024L28.9383 44.5025L25.8006 54.0195L21.3359 44.9641L23.7667 38.1586C24.6485 37.9922 25.4196 37.4406 25.8561 36.6387C26.0781 36.233 26.5009 35.9826 26.9598 35.9826C27.1457 35.9826 27.3275 36.0244 27.496 36.1046C27.9081 36.2995 28.3423 36.3971 28.7923 36.3971C30.1751 36.3971 31.3714 35.4618 31.7214 34.1435L38.3557 47.6024Z" fill="#D62629"/>
<path d="M22.5459 38.1429L14.7176 54.0195L11.5799 44.5025L2.16016 47.6024L8.79652 34.1435C9.14683 35.4618 10.3435 36.3971 11.726 36.3971C12.1759 36.3971 12.6101 36.2995 13.0222 36.1046C13.1907 36.0247 13.3725 35.9826 13.5587 35.9826C14.0173 35.9826 14.4405 36.233 14.6598 36.6364C15.1916 37.6091 16.2111 38.2141 17.3211 38.2141C18.0966 38.2141 18.8323 37.9213 19.3972 37.3875C19.6322 37.1659 19.938 37.0439 20.2593 37.0439C20.5805 37.0439 20.8863 37.1659 21.1213 37.3875C21.5244 37.7685 22.0165 38.0279 22.5459 38.1429Z" fill="#E83136"/>
<path d="M23.7675 38.1586L21.3367 44.9658L20.2598 42.7788L22.5464 38.1429C22.757 38.1897 22.9763 38.2141 23.1979 38.2141C23.3908 38.2141 23.5813 38.1961 23.7675 38.1586Z" fill="#BF131C"/>
<path d="M21.3363 44.9645L21.336 44.9658L20.3887 43.0422L21.3363 44.9645Z" fill="#BF131C"/>
<path d="M21.4199 0.564769C22.4057 -0.365807 24.0054 -0.112436 24.6552 1.07719C25.181 2.03919 26.3656 2.42425 27.3564 1.95495C28.5814 1.37435 30.0244 2.10972 30.2748 3.44207C30.4773 4.51939 31.4855 5.25175 32.5725 5.11136C33.9172 4.93788 35.0624 6.08305 34.8889 7.42743C34.7485 8.51478 35.4808 9.52257 36.5582 9.72513C37.8905 9.97549 38.6256 11.4185 38.0453 12.6439C37.5757 13.6343 37.9607 14.8192 38.9227 15.3447C40.1127 15.9948 40.3661 17.5942 39.4351 18.58C38.6827 19.3772 38.6827 20.623 39.4351 21.4202C40.3661 22.4059 40.1127 24.0053 38.9227 24.6555C37.9607 25.1809 37.5757 26.3659 38.0453 27.3563C38.6256 28.5817 37.8905 30.0247 36.5582 30.275C35.4808 30.4776 34.7485 31.4854 34.8889 32.5727C35.0624 33.9171 33.9172 35.0623 32.5725 34.8888C31.4855 34.7487 30.4773 35.4808 30.2748 36.5581C30.0244 37.8904 28.5814 38.6258 27.3564 38.0452C26.3656 37.5759 25.181 37.961 24.6552 38.923C24.0054 40.1126 22.4057 40.366 21.4199 39.4354C20.6231 38.6826 19.3769 38.6826 18.5801 39.4354C17.5943 40.366 15.9946 40.1126 15.3448 38.923C14.819 37.961 13.6344 37.5759 12.6436 38.0452C11.4186 38.6258 9.97558 37.8904 9.72522 36.5581H9.72488C9.52265 35.4808 8.51453 34.7487 7.42752 34.8888C6.08279 35.0623 4.93762 33.9171 5.1111 32.5727C5.25149 31.4854 4.51914 30.4776 3.44182 30.275C2.10947 30.0247 1.37444 28.5817 1.95471 27.3563C2.42434 26.3659 2.03928 25.1809 1.07728 24.6555C-0.11268 24.0053 -0.366051 22.4059 0.564859 21.4202C1.31728 20.623 1.31728 19.3772 0.564859 18.58C-0.366051 17.5942 -0.11268 15.9948 1.07728 15.3447C2.03928 14.8192 2.42434 13.6343 1.95471 12.6439C1.37444 11.4185 2.10947 9.97549 3.44182 9.72513C4.51914 9.52257 5.25149 8.51478 5.1111 7.42743C4.93762 6.08305 6.08279 4.93788 7.42752 5.11136C8.51453 5.25175 9.52265 4.51939 9.72488 3.44207H9.72522C9.97558 2.10972 11.4186 1.37435 12.6436 1.95495C13.6344 2.42425 14.819 2.03919 15.3448 1.07719C15.9946 -0.112436 17.5943 -0.365807 18.5801 0.564769C19.3769 1.31752 20.6231 1.31752 21.4199 0.564769Z" fill="#E9A77A"/>
<path d="M26.0182 6.86947C24.8453 6.60006 23.6236 6.45867 22.3674 6.45867C13.3692 6.45867 6.07631 13.7515 6.07631 22.7498C6.07631 23.1716 6.09136 23.5908 6.12345 24.0039C5.75743 22.7327 5.56055 21.389 5.56055 20.0002C5.56055 12.0247 12.0251 5.55984 20.0005 5.55984C22.1491 5.55984 24.1864 6.02848 26.0182 6.86947Z" fill="#B35E31"/>
<path d="M34.4407 20.0005C34.4407 27.9759 27.9761 34.4404 20.0004 34.4404C13.4138 34.4404 7.85878 30.0322 6.12331 24.0062V24.0042C6.09122 23.5911 6.07617 23.1719 6.07617 22.7501C6.07617 13.7518 13.369 6.45897 22.3673 6.45897C23.6234 6.45897 24.8451 6.60036 26.018 6.86977C30.9891 9.15109 34.4407 14.1733 34.4407 20.0005Z" fill="#C67746"/>
<path d="M24.7109 15.9009L28.3847 16.8302C28.9503 16.9996 30.2809 17.7852 29.6632 18.5787L26.7632 22.3137C26.6445 22.4664 26.582 22.6553 26.5867 22.8485L26.6957 27.5759C26.7094 28.1662 26.1258 28.5864 25.5702 28.3858L21.1219 26.7821C20.9401 26.7165 20.7412 26.7155 20.5587 26.7794L16.0963 28.3441C15.5391 28.5396 14.1861 27.9543 14.1289 27.2346L15.1293 22.7977C15.1353 22.6045 15.0748 22.415 14.9575 22.2612L12.0906 18.5008C11.7326 18.0312 11.9575 17.3486 12.5248 17.1842L17.0664 15.8672C17.2522 15.8134 17.4136 15.697 17.5236 15.5379L19.6338 11.0445C19.9697 10.5588 21.269 11.1668 21.6006 11.6555L24.2566 15.5677C24.3652 15.7278 24.5257 15.8455 24.7109 15.9009Z" fill="#B35E31"/>
<path d="M23.8553 15.4733L28.3852 16.8304C28.9507 16.9999 29.17 17.6844 28.8077 18.1511L25.9077 21.8857C25.789 22.0385 25.7268 22.2274 25.7312 22.4209L25.8401 27.1483C25.8538 27.7386 25.2706 28.1584 24.7147 27.9582L20.2667 26.3541C20.0845 26.2886 19.8857 26.2879 19.7035 26.3518L15.2411 27.9164C14.6836 28.1116 14.104 27.6865 14.1227 27.0962L14.2738 22.3701C14.2798 22.1769 14.2193 21.9874 14.102 21.8336L11.235 18.0732C10.877 17.6036 11.1023 16.9207 11.6692 16.7562L16.2112 15.4392C16.3967 15.3854 16.5581 15.2694 16.6681 15.1103L19.3585 11.2216C19.6945 10.7359 20.4135 10.7392 20.745 11.2279L23.4011 15.1401C23.5097 15.3002 23.6701 15.4178 23.8553 15.4733Z" fill="#E9A77A"/>
<path d="M8.29277 8.15748C7.91974 10.374 6.96175 11.6816 5.52344 12.2431C6.96175 12.8047 7.91974 14.1126 8.29277 16.3291C8.66614 14.1126 9.62379 12.8047 11.0621 12.2431C9.62379 11.6816 8.66614 10.374 8.29277 8.15748Z" fill="white"/>
<path d="M12.0367 5.94211C11.8344 7.14377 11.315 7.85307 10.5352 8.15758C11.315 8.46209 11.8344 9.17139 12.0367 10.373C12.2392 9.17139 12.7586 8.46209 13.5385 8.15758C12.7586 7.85307 12.2392 7.14377 12.0367 5.94211Z" fill="white"/>
</svg>
