<svg width="40" height="55" viewBox="0 0 40 55" fill="none" xmlns="http://www.w3.org/2000/svg">
<path d="M38.0977 47.6024L28.6802 44.5025L25.5425 54.0195L21.0781 44.9641L23.5085 38.1585C24.3903 37.9921 25.1614 37.4406 25.598 36.6387C25.8199 36.2329 26.2428 35.9825 26.7017 35.9825C26.8876 35.9825 27.0694 36.0243 27.2379 36.1045C27.65 36.2994 28.0842 36.397 28.5341 36.397C29.917 36.397 31.1133 35.4617 31.4633 34.1434L38.0977 47.6024Z" fill="#D62629"/>
<path d="M22.2862 38.1428L14.4576 54.0195L11.32 44.5025L1.90039 47.6024L8.53689 34.1434C8.88696 35.4617 10.0835 36.397 11.4662 36.397C11.9161 36.397 12.3504 36.2994 12.7625 36.1045C12.9309 36.0246 13.1126 35.9825 13.2988 35.9825C13.7574 35.9825 14.1807 36.2329 14.4 36.6363C14.9319 37.609 15.9512 38.214 17.0613 38.214C17.8368 38.214 18.5725 37.9212 19.1374 37.3874C19.3724 37.1658 19.6783 37.0438 19.9995 37.0438C20.3207 37.0438 20.6266 37.1658 20.8615 37.3874C21.2647 37.7685 21.7567 38.0279 22.2862 38.1428Z" fill="#E83136"/>
<path d="M23.5077 38.1586L21.077 44.9658L20 42.7788L22.2867 38.1429C22.4973 38.1897 22.7165 38.2141 22.9381 38.2141C23.131 38.2141 23.3215 38.196 23.5077 38.1586Z" fill="#BF131C"/>
<path d="M21.4201 0.564591C22.4058 -0.36599 24.0053 -0.112618 24.6554 1.07701C25.1809 2.03902 26.3658 2.42408 27.3562 1.95478C28.5816 1.37417 30.0246 2.10954 30.275 3.44191C30.4775 4.51923 31.4853 5.25159 32.5727 5.1112C33.9171 4.93772 35.0623 6.08289 34.8888 7.42729C34.7487 8.51463 35.4807 9.52243 36.5581 9.72499C37.8904 9.97535 38.6258 11.4184 38.0452 12.6438C37.5759 13.6342 37.961 14.8191 38.923 15.3446C40.1126 15.9947 40.366 17.5941 39.4354 18.5799C38.6826 19.3771 38.6826 20.6229 39.4354 21.4201C40.366 22.4058 40.1126 24.0053 38.923 24.6554C37.961 25.1809 37.5759 26.3658 38.0452 27.3562C38.6258 28.5816 37.8904 30.0246 36.5581 30.275C35.4807 30.4775 34.7487 31.4853 34.8888 32.5727C35.0623 33.9171 33.9171 35.0623 32.5727 34.8888C31.4853 34.7487 30.4775 35.4807 30.275 36.5581C30.0246 37.8904 28.5816 38.6258 27.3562 38.0452C26.3658 37.5759 25.1809 37.961 24.6554 38.923C24.0053 40.1126 22.4058 40.366 21.4201 39.4354C20.6229 38.6826 19.3771 38.6826 18.58 39.4354C17.5942 40.366 15.9946 40.1126 15.3447 38.923H15.3447C14.8191 37.961 13.6343 37.5759 12.6437 38.0452C11.4185 38.6258 9.97552 37.8904 9.72506 36.5581C9.5225 35.4807 8.51464 34.7487 7.42742 34.8888C6.08286 35.0623 4.93769 33.9171 5.11117 32.5727C5.25149 31.4853 4.51923 30.4775 3.44187 30.275H3.44184C2.10951 30.0246 1.37424 28.5816 1.95475 27.3562C2.42415 26.3658 2.03918 25.1809 1.07715 24.6554H1.07711C-0.112618 24.0053 -0.365988 22.4058 0.564693 21.4201H0.564727C1.31725 20.6229 1.31725 19.3771 0.564727 18.5799H0.564693C-0.365988 17.5941 -0.112618 15.9947 1.07711 15.3446H1.07715C2.03918 14.8191 2.42415 13.6342 1.95475 12.6438C1.37424 11.4184 2.10951 9.97535 3.44184 9.72499H3.44187C4.51923 9.52243 5.25149 8.51463 5.11117 7.42729C4.93769 6.08289 6.08286 4.93772 7.42742 5.1112C8.51464 5.25159 9.5225 4.51923 9.72506 3.44191C9.97552 2.10954 11.4185 1.37417 12.6437 1.95478C13.6343 2.42408 14.8191 2.03902 15.3447 1.07701H15.3447C15.9946 -0.112618 17.5942 -0.36599 18.58 0.564591C19.3771 1.31734 20.6229 1.31734 21.4201 0.564591Z" fill="#FBE74C"/>
<path d="M26.0181 6.86939C24.8455 6.59998 23.6238 6.45859 22.3677 6.45859C13.3691 6.45859 6.07624 13.7515 6.07624 22.7498C6.07624 23.1716 6.09125 23.5908 6.12334 24.0039C5.75739 22.7327 5.56055 21.389 5.56055 20.0001C5.56055 12.0247 12.0252 5.55976 20.0008 5.55976C22.1494 5.55976 24.1864 6.0284 26.0181 6.86939Z" fill="#F9981A"/>
<path d="M34.4411 19.9994C34.4411 27.9749 27.9761 34.4395 20.0007 34.4395C13.414 34.4395 7.85875 30.0312 6.12327 24.0052V24.0032C6.09118 23.59 6.07617 23.1709 6.07617 22.749C6.07617 13.7508 13.3691 6.45786 22.3676 6.45786C23.6237 6.45786 24.8455 6.59926 26.018 6.86867C30.9892 9.15 34.4411 14.1723 34.4411 19.9994Z" fill="#FBBA2C"/>
<path d="M24.7107 15.9009L28.3846 16.8301C28.9505 16.9996 30.2812 17.7851 29.6635 18.5786L26.7631 22.3137C26.6448 22.4664 26.5823 22.6553 26.5866 22.8485L26.6959 27.5759C26.7096 28.1662 26.126 28.5864 25.5704 28.3858L21.1221 26.7821C20.9403 26.7165 20.7414 26.7155 20.5589 26.7794L16.0965 28.3441C15.5392 28.5396 14.186 27.9543 14.1291 27.2346L15.1292 22.7977C15.1354 22.6045 15.0747 22.4149 14.9576 22.2612L12.0906 18.5008C11.7325 18.0311 11.9577 17.3486 12.5249 17.1841L17.0665 15.8671C17.2522 15.8133 17.4136 15.697 17.5236 15.5379L19.6337 11.0444C19.9699 10.5587 21.2692 11.1668 21.6008 11.6554L24.2568 15.5676C24.3651 15.7277 24.5256 15.8454 24.7107 15.9009Z" fill="#F9981A"/>
<path d="M23.8555 15.4733L28.3851 16.8304C28.951 16.9998 29.1699 17.6844 28.8079 18.151L25.9076 21.8857C25.7892 22.0385 25.7267 22.2273 25.7314 22.4209L25.8404 27.1483C25.8541 27.7386 25.2705 28.1584 24.7149 27.9582L20.2666 26.3541C20.0847 26.2886 19.8859 26.2879 19.7033 26.3518L15.241 27.9164C14.6837 28.1116 14.104 27.6865 14.1228 27.0962L14.2738 22.3701C14.2799 22.1769 14.2193 21.9873 14.1021 21.8336L11.2351 18.0731C10.877 17.6035 11.1022 16.9206 11.6694 16.7562L16.211 15.4392C16.3967 15.3854 16.5582 15.2694 16.6682 15.1103L19.3587 11.2215C19.6947 10.7358 20.4137 10.7391 20.7452 11.2278L23.4013 15.14C23.5099 15.3001 23.6704 15.4178 23.8555 15.4733Z" fill="#FBE74C"/>
<path d="M8.0739 8.15744C7.70073 10.3739 6.74284 11.6815 5.30469 12.2431C6.74284 12.8047 7.70073 14.1126 8.0739 16.3291C8.44707 14.1126 9.40496 12.8047 10.8431 12.2431C9.40496 11.6815 8.44707 10.3739 8.0739 8.15744Z" fill="white"/>
<path d="M12.0368 5.94209C11.8345 7.14376 11.315 7.85306 10.5352 8.15757C11.315 8.46209 11.8345 9.17138 12.0368 10.373C12.2392 9.17138 12.7586 8.46209 13.5385 8.15757C12.7586 7.85306 12.2392 7.14376 12.0368 5.94209Z" fill="white"/>
<path d="M21.0769 44.9645L21.0762 44.9658L20.1289 43.0422L21.0769 44.9645Z" fill="#BF131C"/>
</svg>
