<svg width="40" height="55" viewBox="0 0 40 55" fill="none" xmlns="http://www.w3.org/2000/svg">
<path d="M38.098 47.6024L28.6802 44.5025L25.5428 54.0195L21.0781 44.9641L23.5085 38.1585C24.3906 37.9921 25.1618 37.4405 25.598 36.6386C25.8199 36.2328 26.2431 35.9825 26.7021 35.9825C26.8879 35.9825 27.0694 36.0243 27.2379 36.1045C27.6504 36.2994 28.0842 36.397 28.5341 36.397C29.917 36.397 31.1136 35.4617 31.4636 34.1434L38.098 47.6024Z" fill="#D62629"/>
<path d="M22.2882 38.1428L14.4595 54.0195L11.3218 44.5025L1.90234 47.6024L8.53876 34.1434C8.88873 35.4617 10.0854 36.397 11.4682 36.397C11.9178 36.397 12.3523 36.2994 12.7645 36.1045C12.9329 36.0246 13.1145 35.9825 13.3006 35.9825C13.7592 35.9825 14.1824 36.2328 14.402 36.6363C14.9338 37.609 15.953 38.214 17.0631 38.214C17.8386 38.214 18.5743 37.9212 19.1395 37.3874C19.3742 37.1658 19.68 37.0438 20.0016 37.0438C20.3228 37.0438 20.6286 37.1658 20.8633 37.3874C21.2667 37.7684 21.7584 38.0278 22.2882 38.1428Z" fill="#E83136"/>
<path d="M23.5094 38.1586L21.0786 44.9658L20.002 42.7788L22.2886 38.1429C22.4992 38.1897 22.7185 38.2141 22.9401 38.2141C23.1326 38.2141 23.3235 38.196 23.5094 38.1586Z" fill="#BF131C"/>
<path d="M21.0785 44.9645L21.0782 44.9658L20.1309 43.0421L21.0785 44.9645Z" fill="#BF131C"/>
<path d="M21.4198 0.564527C22.4059 -0.366055 24.0053 -0.112682 24.6555 1.07695C25.1809 2.03895 26.3655 2.42402 27.3563 1.95472C28.5814 1.37411 30.0244 2.10948 30.2751 3.44185C30.4776 4.51917 31.4854 5.25154 32.5724 5.11115H32.5728C33.9172 4.93767 35.0623 6.08284 34.8889 7.42723C34.7485 8.51458 35.4808 9.52238 36.5582 9.72494C37.8905 9.97531 38.6259 11.4183 38.0453 12.6437C37.576 13.6341 37.9607 14.8191 38.9227 15.3445C40.1127 15.9947 40.3661 17.5941 39.4351 18.5798C38.6827 19.3771 38.6827 20.6228 39.4351 21.4201C40.3661 22.4058 40.1127 24.0052 38.9227 24.6554C37.9607 25.1808 37.576 26.3658 38.0453 27.3562C38.6259 28.5816 37.8905 30.0246 36.5582 30.275C35.4808 30.4775 34.7485 31.4853 34.8889 32.5727C35.0623 33.9171 33.9172 35.0622 32.5728 34.8888H32.5724C31.4854 34.7487 30.4776 35.4807 30.2751 36.5581C30.0244 37.8904 28.5814 38.6258 27.3563 38.0452C26.3655 37.5759 25.1809 37.961 24.6555 38.923C24.0053 40.1126 22.4059 40.366 21.4198 39.4354C20.6229 38.6826 19.3772 38.6826 18.5799 39.4354C17.5942 40.366 15.9944 40.1126 15.3446 38.923C14.8192 37.961 13.6342 37.5759 12.6435 38.0452C11.4184 38.6258 9.9754 37.8904 9.72504 36.5581C9.52248 35.4807 8.51468 34.7487 7.42733 34.8888C6.08293 35.0622 4.93775 33.9171 5.11123 32.5727C5.25129 31.4853 4.51926 30.4775 3.44194 30.275C2.10957 30.0246 1.3742 28.5816 1.95481 27.3562C2.42412 26.3658 2.03904 25.1808 1.07704 24.6554C-0.112594 24.0052 -0.365959 22.4058 0.564623 21.4201C1.31704 20.6228 1.31704 19.3771 0.564623 18.5798C-0.365959 17.5941 -0.112594 15.9947 1.07704 15.3445C2.03904 14.8191 2.42412 13.6341 1.95481 12.6437C1.3742 11.4183 2.10957 9.97531 3.44194 9.72494C4.51926 9.52238 5.25129 8.51458 5.11123 7.42723C4.93775 6.08284 6.08293 4.93767 7.42733 5.11115C8.51468 5.25154 9.52248 4.51917 9.72504 3.44185C9.9754 2.10948 11.4184 1.37411 12.6435 1.95472C13.6342 2.42402 14.8192 2.03895 15.3446 1.07695C15.9944 -0.112682 17.5942 -0.366055 18.5799 0.564527C19.3772 1.31728 20.6229 1.31728 21.4198 0.564527Z" fill="#DFE1DE"/>
<path d="M26.0183 6.86937C24.8457 6.59995 23.6237 6.45856 22.3675 6.45856C13.3692 6.45856 6.07631 13.7515 6.07631 22.7498C6.07631 23.1716 6.09135 23.5908 6.12344 24.0039C5.75742 22.7327 5.56055 21.389 5.56055 20.0001C5.56055 12.0247 12.0255 5.55973 20.0009 5.55973C22.1492 5.55973 24.1866 6.02837 26.0183 6.86937Z" fill="#838989"/>
<path d="M34.4409 19.9994C34.4409 27.9749 27.9763 34.4395 20.0008 34.4395C13.4139 34.4395 7.85878 30.0312 6.1233 24.0052V24.0032C6.09121 23.59 6.07617 23.1709 6.07617 22.749C6.07617 13.7507 13.3691 6.45782 22.3674 6.45782C23.6235 6.45782 24.8456 6.59921 26.0182 6.86863C30.9893 9.14996 34.4409 14.1722 34.4409 19.9994Z" fill="#ACB0B1"/>
<path d="M24.7108 15.9009L28.3847 16.8301C28.9503 16.9996 30.281 17.7851 29.6633 18.5786L26.7632 22.3137C26.6445 22.4664 26.5824 22.6553 26.5867 22.8485L26.6957 27.5759C26.7094 28.1662 26.1261 28.5864 25.5706 28.3858L21.1222 26.782C20.9404 26.7165 20.7412 26.7155 20.559 26.7794L16.0966 28.3441C15.5391 28.5396 14.186 27.9543 14.1292 27.2346L15.1293 22.7977C15.1353 22.6045 15.0748 22.4149 14.9575 22.2612L12.0905 18.5007C11.7325 18.0311 11.9578 17.3485 12.525 17.1841L17.0666 15.8671C17.2522 15.8133 17.4136 15.697 17.5236 15.5378L19.6338 11.0444C19.9697 10.5587 21.269 11.1667 21.6009 11.6554L24.2566 15.5676C24.3652 15.7277 24.5257 15.8454 24.7108 15.9009Z" fill="#838989"/>
<path d="M23.8554 15.4732L28.3853 16.8303C28.9509 16.9998 29.1701 17.6844 28.8078 18.151L25.9077 21.8857C25.7891 22.0385 25.7269 22.2273 25.7313 22.4209L25.8406 27.1483C25.8539 27.7386 25.2706 28.1584 24.7151 27.9582L20.2668 26.3541C20.0849 26.2886 19.886 26.2879 19.7035 26.3518L15.2411 27.9164C14.6839 28.1116 14.104 27.6865 14.123 27.0962L14.2738 22.37C14.2801 22.1768 14.2193 21.9873 14.102 21.8336L11.235 18.0731C10.877 17.6035 11.1023 16.9206 11.6696 16.7561L16.2112 15.4391C16.3967 15.3853 16.5581 15.2693 16.6681 15.1102L19.3586 11.2214C19.6948 10.7358 20.4135 10.7391 20.7454 11.2278L23.4011 15.14C23.5097 15.3001 23.6702 15.4178 23.8554 15.4732Z" fill="#DFE1DE"/>
<path d="M8.29245 8.15743C7.91942 10.3739 6.96143 11.6815 5.52344 12.2431C6.96143 12.8047 7.91942 14.1126 8.29245 16.3291C8.66582 14.1126 9.62348 12.8047 11.0618 12.2431C9.62348 11.6815 8.66582 10.3739 8.29245 8.15743Z" fill="white"/>
<path d="M12.037 5.94209C11.8344 7.14376 11.315 7.85306 10.5352 8.15757C11.315 8.46208 11.8344 9.17138 12.037 10.373C12.2392 9.17138 12.7587 8.46208 13.5385 8.15757C12.7587 7.85306 12.2392 7.14376 12.037 5.94209Z" fill="white"/>
</svg>
